<svg width="300" height="50" viewBox="0 0 300 50" fill="none" xmlns="http://www.w3.org/2000/svg">
<rect width="300" height="50" fill="#3F3F3F"/>
<g filter="url(#filter0_d)">
<path d="M69.8786 41H65.1746V28.568H53.8946V41H49.1426V12.008L53.3186 7.832H69.8786V41ZM68.1506 12.008H53.8946V27.992L57.4946 24.392H65.1746V14.984L68.1506 12.008ZM95.3688 24.392L90.6168 29.144V20.264H83.5608V41H78.8088V16.088H83.5608V19.688L87.0168 16.088H91.2408L95.3688 20.264V24.392ZM116.532 20.264L111.78 25.064V20.264H105.3V36.824H115.956V41H104.676L100.548 36.824V20.264L104.676 16.088H112.356L116.532 20.264ZM138.656 41H133.904V20.264H126.176V41H121.424V7.304L126.176 2.6V19.688L129.68 16.088H134.48L138.656 20.264V41ZM151.436 12.008H146.684V7.256H151.436V12.008ZM151.436 41H146.684V19.736L151.436 14.936V41ZM170.611 24.392L166.531 28.568H156.451L160.531 24.392H170.611ZM187.843 16.088L183.667 20.264H180.691V36.824H186.595V41H180.115L175.939 36.824V20.264H170.035L174.211 16.088H175.939V12.584L180.691 7.832V16.088H187.843ZM208.059 41H195.051L190.923 36.824V20.264L195.051 16.088H203.931L208.059 20.264V28.568L203.931 32.696H196.251L200.475 28.568H203.355V20.264H195.675V36.824H208.059V41ZM230.297 20.264L225.545 25.064V20.264H219.065V36.824H229.721V41H218.441L214.313 36.824V20.264L218.441 16.088H226.121L230.297 20.264ZM252.421 41H247.669V20.264H239.941V41H235.189V7.304L239.941 2.6V19.688L243.445 16.088H248.245L252.421 20.264V41Z" fill="#A2A0A0"/>
</g>
<defs>
<filter id="filter0_d" x="49.1426" y="2.60001" width="211.279" height="46.4" filterUnits="userSpaceOnUse" color-interpolation-filters="sRGB">
<feFlood flood-opacity="0" result="BackgroundImageFix"/>
<feColorMatrix in="SourceAlpha" type="matrix" values="0 0 0 0 0 0 0 0 0 0 0 0 0 0 0 0 0 0 127 0"/>
<feOffset dx="4" dy="4"/>
<feGaussianBlur stdDeviation="2"/>
<feColorMatrix type="matrix" values="0 0 0 0 0 0 0 0 0 0 0 0 0 0 0 0 0 0 0.25 0"/>
<feBlend mode="normal" in2="BackgroundImageFix" result="effect1_dropShadow"/>
<feBlend mode="normal" in="SourceGraphic" in2="effect1_dropShadow" result="shape"/>
</filter>
</defs>
</svg>
